<svg width="40" height="40" viewBox="0 0 40.0013 40" fill="none" xmlns="http://www.w3.org/2000/svg">
<g id="tui-logo-square / ryadom">
<path id="Vector" fill-rule="evenodd" clip-rule="evenodd" d="M17.4946 34.6479C12.9297 34.3861 7.08869 29.3713 3.30919 22.0495C-1.22294 13.2715 -1.08387 4.48536 3.62824 2.43199C7.13778 0.902182 12.1935 3.54459 16.4229 8.63303C20.9141 4.73898 26.5343 2.96375 31.091 4.49356C37.7665 6.72691 39.648 15.1858 35.2959 23.3911C31.4018 30.7293 23.8347 35.376 17.5028 34.6642L17.4946 34.6479Z" fill="url(#paint0_linear_0_9)"/>
<path id="Vector_2" fill-rule="evenodd" clip-rule="evenodd" d="M29.4479 37.944C32.2048 37.7803 35.7226 34.778 38.005 30.3849C40.7374 25.1165 40.6556 19.8481 37.8168 18.6128C35.698 17.6965 32.6466 19.2836 30.1024 22.335C27.3946 19.9953 23.9996 18.9318 21.2508 19.8481C17.2259 21.1897 16.0888 26.2618 18.7148 31.1866C21.0627 35.5879 25.6357 38.3775 29.4561 37.944H29.4479Z" fill="url(#paint1_linear_0_9)"/>
</g>
<defs>
<linearGradient id="paint0_linear_0_9" x1="11.2036" y1="0.157733" x2="26.788" y2="27.9478" gradientUnits="userSpaceOnUse">
<stop stop-color="#FFDD2D"/>
<stop offset="1" stop-color="#FFBE3F"/>
</linearGradient>
<linearGradient id="paint1_linear_0_9" x1="21.9376" y1="18.2857" x2="35.8449" y2="36.6923" gradientUnits="userSpaceOnUse">
<stop stop-color="#FF66DD"/>
<stop offset="1" stop-color="#E92BBF"/>
</linearGradient>
</defs>
</svg>
