<svg width="23" height="23" viewBox="0 0 23 23" fill="none" xmlns="http://www.w3.org/2000/svg">
<path fill-rule="evenodd" clip-rule="evenodd" d="M11.5 0C5.14873 0 0 5.14873 0 11.5C0 17.8513 5.14873 23 11.5 23C17.8513 23 23 17.8513 23 11.5C23 5.14873 17.8513 0 11.5 0ZM8.5 10.4998V5.5L12.4601 5.50024C13.4774 5.5003 14.5317 5.65375 15.2815 6.34126C15.8958 6.90457 16.5 7.77099 16.5 9C16.5 10.2287 15.8961 11.0951 15.2819 11.6585C14.532 12.3465 13.4771 12.5 12.4593 12.5H11V13.541H14.5C14.5 14.6229 13.6229 15.5 12.541 15.5H11V15.5625C11 16.6671 10.1046 17.5625 9 17.5625H8.5V15.5L7 15.4588V15.0004C7 14.1784 7.67831 13.5184 8.5 13.541V12.5L7 12.4588V11.9592C7 11.1372 7.67831 10.4773 8.5 10.4998ZM12.5 7.49983L11 7.5V10.4998H12.5C12.5 10.4998 14 10.6058 14 9.05283C14 7.49983 12.5 7.49983 12.5 7.49983Z" fill="#FFFFFF"/>
</svg>
